<svg width="100" height="100" viewBox="0 0 100 100" fill="none" xmlns="http://www.w3.org/2000/svg">
<path d="M70.8333 57.3333C71.9384 57.3333 72.9982 56.8943 73.7796 56.1129C74.561 55.3315 75 54.2717 75 53.1667C75 52.0616 74.561 51.0018 73.7796 50.2204C72.9982 49.439 71.9384 49 70.8333 49C69.7283 49 68.6685 49.439 67.8871 50.2204C67.1056 51.0018 66.6667 52.0616 66.6667 53.1667C66.6667 54.2717 67.1056 55.3315 67.8871 56.1129C68.6685 56.8943 69.7283 57.3333 70.8333 57.3333ZM70.8333 74C71.9384 74 72.9982 73.561 73.7796 72.7796C74.561 71.9982 75 70.9384 75 69.8333C75 68.7283 74.561 67.6685 73.7796 66.8871C72.9982 66.1056 71.9384 65.6667 70.8333 65.6667C69.7283 65.6667 68.6685 66.1056 67.8871 66.8871C67.1056 67.6685 66.6667 68.7283 66.6667 69.8333C66.6667 70.9384 67.1056 71.9982 67.8871 72.7796C68.6685 73.561 69.7283 74 70.8333 74ZM54.1667 53.1667C54.1667 54.2717 53.7277 55.3315 52.9463 56.1129C52.1649 56.8943 51.1051 57.3333 50 57.3333C48.8949 57.3333 47.8351 56.8943 47.0537 56.1129C46.2723 55.3315 45.8333 54.2717 45.8333 53.1667C45.8333 52.0616 46.2723 51.0018 47.0537 50.2204C47.8351 49.439 48.8949 49 50 49C51.1051 49 52.1649 49.439 52.9463 50.2204C53.7277 51.0018 54.1667 52.0616 54.1667 53.1667ZM54.1667 69.8333C54.1667 70.9384 53.7277 71.9982 52.9463 72.7796C52.1649 73.561 51.1051 74 50 74C48.8949 74 47.8351 73.561 47.0537 72.7796C46.2723 71.9982 45.8333 70.9384 45.8333 69.8333C45.8333 68.7283 46.2723 67.6685 47.0537 66.8871C47.8351 66.1056 48.8949 65.6667 50 65.6667C51.1051 65.6667 52.1649 66.1056 52.9463 66.8871C53.7277 67.6685 54.1667 68.7283 54.1667 69.8333ZM29.1667 57.3333C30.2717 57.3333 31.3315 56.8943 32.1129 56.1129C32.8943 55.3315 33.3333 54.2717 33.3333 53.1667C33.3333 52.0616 32.8943 51.0018 32.1129 50.2204C31.3315 49.439 30.2717 49 29.1667 49C28.0616 49 27.0018 49.439 26.2204 50.2204C25.439 51.0018 25 52.0616 25 53.1667C25 54.2717 25.439 55.3315 26.2204 56.1129C27.0018 56.8943 28.0616 57.3333 29.1667 57.3333ZM29.1667 74C30.2717 74 31.3315 73.561 32.1129 72.7796C32.8943 71.9982 33.3333 70.9384 33.3333 69.8333C33.3333 68.7283 32.8943 67.6685 32.1129 66.8871C31.3315 66.1056 30.2717 65.6667 29.1667 65.6667C28.0616 65.6667 27.0018 66.1056 26.2204 66.8871C25.439 67.6685 25 68.7283 25 69.8333C25 70.9384 25.439 71.9982 26.2204 72.7796C27.0018 73.561 28.0616 74 29.1667 74Z" fill="white"/>
<path fill-rule="evenodd" clip-rule="evenodd" d="M28.9542 6C29.783 6 30.5778 6.32924 31.1639 6.91529C31.7499 7.50134 32.0792 8.2962 32.0792 9.125V12.3042C34.8375 12.25 37.875 12.25 41.2167 12.25H58.3542C61.7 12.25 64.7375 12.25 67.4958 12.3042V9.125C67.4958 8.2962 67.8251 7.50134 68.4111 6.91529C68.9972 6.32924 69.792 6 70.6208 6C71.4496 6 72.2445 6.32924 72.8306 6.91529C73.4166 7.50134 73.7458 8.2962 73.7458 9.125V12.5708C74.8292 12.6542 75.8556 12.7597 76.825 12.8875C81.7083 13.5458 85.6625 14.9292 88.7833 18.0458C91.9 21.1667 93.2833 25.1208 93.9417 30.0042C94.5792 34.7542 94.5792 40.8167 94.5792 48.475V57.275C94.5792 64.9333 94.5792 71 93.9417 75.7458C93.2833 80.6292 91.9 84.5833 88.7833 87.7042C85.6625 90.8208 81.7083 92.2042 76.825 92.8625C72.075 93.5 66.0125 93.5 58.3542 93.5H41.225C33.5667 93.5 27.5 93.5 22.7542 92.8625C17.8708 92.2042 13.9167 90.8208 10.7958 87.7042C7.67917 84.5833 6.29583 80.6292 5.6375 75.7458C5 70.9958 5 64.9333 5 57.275V48.475C5 40.8167 5 34.75 5.6375 30.0042C6.29583 25.1208 7.67917 21.1667 10.7958 18.0458C13.9167 14.9292 17.8708 13.5458 22.7542 12.8875C23.7264 12.7597 24.7528 12.6542 25.8333 12.5708V9.125C25.8333 8.29692 26.162 7.50269 26.7472 6.91676C27.3323 6.33083 28.1261 6.0011 28.9542 6ZM23.5792 19.0833C19.3917 19.6458 16.975 20.7042 15.2125 22.4667C13.45 24.2292 12.3917 26.6458 11.8292 30.8333C11.7347 31.5417 11.6542 32.2903 11.5875 33.0792H87.9875C87.9208 32.2903 87.8403 31.5403 87.7458 30.8292C87.1833 26.6417 86.125 24.225 84.3625 22.4625C82.6 20.7 80.1833 19.6417 75.9917 19.0792C71.7125 18.5042 66.0667 18.4958 58.1208 18.4958H41.4542C33.5083 18.4958 27.8667 18.5083 23.5792 19.0833ZM11.2458 48.7083C11.2458 45.15 11.2458 42.0542 11.3 39.3333H88.275C88.3292 42.0542 88.3292 45.15 88.3292 48.7083V57.0417C88.3292 64.9875 88.3208 70.6333 87.7458 74.9167C87.1833 79.1042 86.125 81.5208 84.3625 83.2833C82.6 85.0458 80.1833 86.1042 75.9917 86.6667C71.7125 87.2417 66.0667 87.25 58.1208 87.25H41.4542C33.5083 87.25 27.8667 87.2417 23.5792 86.6667C19.3917 86.1042 16.975 85.0458 15.2125 83.2833C13.45 81.5208 12.3917 79.1042 11.8292 74.9125C11.2542 70.6333 11.2458 64.9875 11.2458 57.0417V48.7083Z" fill="white"/>
</svg>
