<svg width="45" height="45" viewBox="0 0 45 45" fill="none" xmlns="http://www.w3.org/2000/svg">
<path d="M14.6791 30.3206C10.6468 26.2804 7.54574 21.4081 5.59289 16.0444C4.51852 13.1119 5.50289 9.89061 7.71164 7.68186L9.07852 6.31686C9.44599 5.94864 9.88248 5.65651 10.363 5.45719C10.8435 5.25787 11.3586 5.15527 11.8788 5.15527C12.399 5.15527 12.9142 5.25787 13.3947 5.45719C13.8752 5.65651 14.3117 5.94864 14.6791 6.31686L17.8798 9.51748C18.248 9.88496 18.5401 10.3214 18.7394 10.802C18.9388 11.2825 19.0414 11.7976 19.0414 12.3178C19.0414 12.838 18.9388 13.3531 18.7394 13.8336C18.5401 14.3141 18.248 14.7506 17.8798 15.1181L17.0923 15.9056C16.7771 16.2208 16.527 16.5949 16.3564 17.0067C16.1858 17.4185 16.098 17.8599 16.098 18.3056C16.098 18.7513 16.1858 19.1927 16.3564 19.6045C16.527 20.0163 16.7771 20.3905 17.0923 20.7056L24.2923 27.9075C24.6074 28.2227 24.9816 28.4727 25.3934 28.6433C25.8052 28.8139 26.2465 28.9017 26.6923 28.9017C27.138 28.9017 27.5794 28.8139 27.9912 28.6433C28.403 28.4727 28.7771 28.2227 29.0923 27.9075L29.8816 27.12C30.2491 26.7518 30.6856 26.4596 31.1661 26.2603C31.6466 26.061 32.1617 25.9584 32.682 25.9584C33.2022 25.9584 33.7173 26.061 34.1978 26.2603C34.6783 26.4596 35.1148 26.7518 35.4823 27.12L38.6829 30.3206C39.0511 30.6881 39.3432 31.1246 39.5426 31.6051C39.7419 32.0856 39.8445 32.6007 39.8445 33.1209C39.8445 33.6411 39.7419 34.1562 39.5426 34.6368C39.3432 35.1173 39.0511 35.5538 38.6829 35.9212L37.3179 37.2862C35.1091 39.4969 31.8879 40.4812 28.9554 39.4069C23.5917 37.454 18.7193 34.353 14.6791 30.3206Z" stroke="#E0AE8E" stroke-width="2.5" stroke-linejoin="round"/>
</svg>
