<svg width="27" height="32" viewBox="0 0 27 32" fill="none" xmlns="http://www.w3.org/2000/svg">
<g opacity="0.6">
<path d="M14.396 30.1122C14.1349 30.2997 13.8215 30.4006 13.5 30.4006C13.1785 30.4006 12.8651 30.2997 12.604 30.1122C4.87735 24.6048 -3.32289 13.2765 4.96695 5.09067C7.24276 2.85196 10.3076 1.59796 13.5 1.59937C16.7001 1.59937 19.7706 2.8554 22.033 5.08907C30.3229 13.2749 22.1227 24.6016 14.396 30.1122Z" stroke="#1E201E" stroke-width="2.40007" stroke-linecap="round" stroke-linejoin="round"/>
<path d="M13.5009 15.9998C14.3496 15.9998 15.1635 15.6626 15.7637 15.0625C16.3638 14.4624 16.701 13.6484 16.701 12.7997C16.701 11.951 16.3638 11.137 15.7637 10.5369C15.1635 9.93676 14.3496 9.59961 13.5009 9.59961C12.6522 9.59961 11.8382 9.93676 11.2381 10.5369C10.6379 11.137 10.3008 11.951 10.3008 12.7997C10.3008 13.6484 10.6379 14.4624 11.2381 15.0625C11.8382 15.6626 12.6522 15.9998 13.5009 15.9998Z" stroke="#1E201E" stroke-width="2.40007" stroke-linecap="round" stroke-linejoin="round"/>
</g>
</svg>
