<svg width="25" height="26" viewBox="0 0 25 26" fill="none" xmlns="http://www.w3.org/2000/svg">
<path d="M17.7083 14.8448C17.9846 14.8448 18.2496 14.7351 18.4449 14.5397C18.6403 14.3444 18.75 14.0794 18.75 13.8031C18.75 13.5269 18.6403 13.2619 18.4449 13.0666C18.2496 12.8712 17.9846 12.7615 17.7083 12.7615C17.4321 12.7615 17.1671 12.8712 16.9718 13.0666C16.7764 13.2619 16.6667 13.5269 16.6667 13.8031C16.6667 14.0794 16.7764 14.3444 16.9718 14.5397C17.1671 14.7351 17.4321 14.8448 17.7083 14.8448ZM17.7083 19.0115C17.9846 19.0115 18.2496 18.9017 18.4449 18.7064C18.6403 18.511 18.75 18.2461 18.75 17.9698C18.75 17.6935 18.6403 17.4286 18.4449 17.2332C18.2496 17.0379 17.9846 16.9281 17.7083 16.9281C17.4321 16.9281 17.1671 17.0379 16.9718 17.2332C16.7764 17.4286 16.6667 17.6935 16.6667 17.9698C16.6667 18.2461 16.7764 18.511 16.9718 18.7064C17.1671 18.9017 17.4321 19.0115 17.7083 19.0115ZM13.5417 13.8031C13.5417 14.0794 13.4319 14.3444 13.2366 14.5397C13.0412 14.7351 12.7763 14.8448 12.5 14.8448C12.2237 14.8448 11.9588 14.7351 11.7634 14.5397C11.5681 14.3444 11.4583 14.0794 11.4583 13.8031C11.4583 13.5269 11.5681 13.2619 11.7634 13.0666C11.9588 12.8712 12.2237 12.7615 12.5 12.7615C12.7763 12.7615 13.0412 12.8712 13.2366 13.0666C13.4319 13.2619 13.5417 13.5269 13.5417 13.8031ZM13.5417 17.9698C13.5417 18.2461 13.4319 18.511 13.2366 18.7064C13.0412 18.9017 12.7763 19.0115 12.5 19.0115C12.2237 19.0115 11.9588 18.9017 11.7634 18.7064C11.5681 18.511 11.4583 18.2461 11.4583 17.9698C11.4583 17.6935 11.5681 17.4286 11.7634 17.2332C11.9588 17.0379 12.2237 16.9281 12.5 16.9281C12.7763 16.9281 13.0412 17.0379 13.2366 17.2332C13.4319 17.4286 13.5417 17.6935 13.5417 17.9698ZM7.29167 14.8448C7.56793 14.8448 7.83289 14.7351 8.02824 14.5397C8.22359 14.3444 8.33333 14.0794 8.33333 13.8031C8.33333 13.5269 8.22359 13.2619 8.02824 13.0666C7.83289 12.8712 7.56793 12.7615 7.29167 12.7615C7.0154 12.7615 6.75045 12.8712 6.5551 13.0666C6.35975 13.2619 6.25 13.5269 6.25 13.8031C6.25 14.0794 6.35975 14.3444 6.5551 14.5397C6.75045 14.7351 7.0154 14.8448 7.29167 14.8448ZM7.29167 19.0115C7.56793 19.0115 7.83289 18.9017 8.02824 18.7064C8.22359 18.511 8.33333 18.2461 8.33333 17.9698C8.33333 17.6935 8.22359 17.4286 8.02824 17.2332C7.83289 17.0379 7.56793 16.9281 7.29167 16.9281C7.0154 16.9281 6.75045 17.0379 6.5551 17.2332C6.35975 17.4286 6.25 17.6935 6.25 17.9698C6.25 18.2461 6.35975 18.511 6.5551 18.7064C6.75045 18.9017 7.0154 19.0115 7.29167 19.0115Z" fill="#1E201E" fill-opacity="0.6"/>
<path fill-rule="evenodd" clip-rule="evenodd" d="M7.23854 2.01147C7.44574 2.01147 7.64446 2.09378 7.79097 2.2403C7.93748 2.38681 8.01979 2.58552 8.01979 2.79272V3.58752C8.70938 3.57397 9.46875 3.57397 10.3042 3.57397H14.5885C15.425 3.57397 16.1844 3.57397 16.874 3.58752V2.79272C16.874 2.58552 16.9563 2.38681 17.1028 2.2403C17.2493 2.09378 17.448 2.01147 17.6552 2.01147C17.8624 2.01147 18.0611 2.09378 18.2076 2.2403C18.3542 2.38681 18.4365 2.58552 18.4365 2.79272V3.65418C18.7073 3.67502 18.9639 3.70141 19.2063 3.73335C20.4271 3.89793 21.4156 4.24377 22.1958 5.02293C22.975 5.80314 23.3208 6.79168 23.4854 8.01252C23.6448 9.20002 23.6448 10.7156 23.6448 12.6302V14.8302C23.6448 16.7448 23.6448 18.2615 23.4854 19.4479C23.3208 20.6688 22.975 21.6573 22.1958 22.4375C21.4156 23.2167 20.4271 23.5625 19.2063 23.7271C18.0188 23.8865 16.5031 23.8865 14.5885 23.8865H10.3062C8.39167 23.8865 6.875 23.8865 5.68854 23.7271C4.46771 23.5625 3.47917 23.2167 2.69896 22.4375C1.91979 21.6573 1.57396 20.6688 1.40938 19.4479C1.25 18.2604 1.25 16.7448 1.25 14.8302V12.6302C1.25 10.7156 1.25 9.19897 1.40938 8.01252C1.57396 6.79168 1.91979 5.80314 2.69896 5.02293C3.47917 4.24377 4.46771 3.89793 5.68854 3.73335C5.9316 3.70141 6.18819 3.67502 6.45833 3.65418V2.79272C6.45833 2.5857 6.5405 2.38715 6.68679 2.24067C6.83308 2.09418 7.03152 2.01175 7.23854 2.01147ZM5.89479 5.28231C4.84792 5.42293 4.24375 5.68752 3.80312 6.12814C3.3625 6.56877 3.09792 7.17293 2.95729 8.21981C2.93368 8.39689 2.91354 8.58404 2.89688 8.78127H21.9969C21.9802 8.58404 21.9601 8.39654 21.9365 8.21877C21.7958 7.17189 21.5313 6.56772 21.0906 6.1271C20.65 5.68647 20.0458 5.42189 18.9979 5.28127C17.9281 5.13752 16.5167 5.13543 14.5302 5.13543H10.3635C8.37708 5.13543 6.96667 5.13856 5.89479 5.28231ZM2.81146 12.6886C2.81146 11.799 2.81146 11.025 2.825 10.3448H22.0688C22.0823 11.025 22.0823 11.799 22.0823 12.6886V14.7719C22.0823 16.7583 22.0802 18.1698 21.9365 19.2406C21.7958 20.2875 21.5313 20.8917 21.0906 21.3323C20.65 21.7729 20.0458 22.0375 18.9979 22.1781C17.9281 22.3219 16.5167 22.324 14.5302 22.324H10.3635C8.37708 22.324 6.96667 22.3219 5.89479 22.1781C4.84792 22.0375 4.24375 21.7729 3.80312 21.3323C3.3625 20.8917 3.09792 20.2875 2.95729 19.2396C2.81354 18.1698 2.81146 16.7583 2.81146 14.7719V12.6886Z" fill="#1E201E" fill-opacity="0.6"/>
</svg>
