<svg width="30" height="31" viewBox="0 0 30 31" fill="none" xmlns="http://www.w3.org/2000/svg">
<g clip-path="url(#clip0_138_1715)">
<path d="M22.9688 0.5H7.03125C3.148 0.5 0 3.648 0 7.53125V23.4688C0 27.352 3.148 30.5 7.03125 30.5H22.9688C26.852 30.5 30 27.352 30 23.4688V7.53125C30 3.648 26.852 0.5 22.9688 0.5Z" fill="url(#paint0_radial_138_1715)"/>
<path d="M22.9688 0.5H7.03125C3.148 0.5 0 3.648 0 7.53125V23.4688C0 27.352 3.148 30.5 7.03125 30.5H22.9688C26.852 30.5 30 27.352 30 23.4688V7.53125C30 3.648 26.852 0.5 22.9688 0.5Z" fill="url(#paint1_radial_138_1715)"/>
<path d="M15.0011 3.78125C11.8185 3.78125 11.419 3.7952 10.1691 3.85203C8.92148 3.90922 8.06988 4.10668 7.3248 4.39648C6.55395 4.69578 5.90016 5.09621 5.24883 5.74777C4.59691 6.39922 4.19648 7.05301 3.89625 7.82352C3.60563 8.56883 3.40793 9.42078 3.3518 10.6678C3.2959 11.9178 3.28125 12.3174 3.28125 15.5001C3.28125 18.6828 3.29531 19.081 3.35203 20.3309C3.40945 21.5785 3.60691 22.4301 3.89648 23.1752C4.19602 23.9461 4.59645 24.5998 5.24801 25.2512C5.89922 25.9031 6.55301 26.3045 7.32328 26.6037C8.06895 26.8936 8.92066 27.091 10.168 27.1482C11.418 27.205 11.8172 27.219 14.9996 27.219C18.1826 27.219 18.5808 27.205 19.8307 27.1482C21.0783 27.091 21.9308 26.8936 22.6765 26.6037C23.447 26.3045 24.0998 25.9031 24.7509 25.2512C25.4029 24.5998 25.8032 23.9461 26.1035 23.1755C26.3916 22.4301 26.5894 21.5783 26.648 20.3312C26.7041 19.0812 26.7188 18.6828 26.7188 15.5001C26.7188 12.3174 26.7041 11.918 26.648 10.668C26.5894 9.42043 26.3916 8.56895 26.1035 7.82387C25.8032 7.05301 25.4029 6.39922 24.7509 5.74777C24.0991 5.09598 23.4472 4.69555 22.6758 4.3966C21.9287 4.10668 21.0766 3.9091 19.8291 3.85203C18.579 3.7952 18.1811 3.78125 14.9974 3.78125H15.0011ZM13.9498 5.89309C14.2618 5.89262 14.61 5.89309 15.0011 5.89309C18.1301 5.89309 18.5009 5.90434 19.7365 5.96047C20.8791 6.01273 21.4992 6.20363 21.9123 6.36406C22.4592 6.57641 22.8491 6.83035 23.259 7.24062C23.6692 7.65078 23.923 8.04137 24.1359 8.58828C24.2964 9.00078 24.4875 9.62094 24.5395 10.7635C24.5957 11.9989 24.6079 12.3699 24.6079 15.4974C24.6079 18.6249 24.5957 18.9961 24.5395 20.2313C24.4873 21.3739 24.2964 21.9941 24.1359 22.4067C23.9236 22.9536 23.6692 23.343 23.259 23.7529C22.8489 24.1631 22.4595 24.4169 21.9123 24.6294C21.4997 24.7905 20.8791 24.9809 19.7365 25.0332C18.5011 25.0893 18.1301 25.1015 15.0011 25.1015C11.8719 25.1015 11.501 25.0893 10.2657 25.0332C9.12316 24.9805 8.50301 24.7896 8.08957 24.6291C7.54277 24.4167 7.15207 24.1629 6.74191 23.7527C6.33176 23.3425 6.07793 22.9529 5.865 22.4057C5.70457 21.9931 5.51344 21.373 5.46141 20.2304C5.40527 18.995 5.39402 18.624 5.39402 15.4945C5.39402 12.365 5.40527 11.996 5.46141 10.7606C5.51367 9.61801 5.70457 8.99785 5.865 8.58476C6.07746 8.03785 6.33176 7.64727 6.74203 7.23711C7.1523 6.82695 7.54277 6.57301 8.08969 6.3602C8.50277 6.19906 9.12316 6.00863 10.2657 5.95613C11.3468 5.90727 11.7657 5.89262 13.9498 5.89016V5.89309ZM21.2565 7.83887C20.4802 7.83887 19.8503 8.46816 19.8503 9.24465C19.8503 10.021 20.4802 10.6509 21.2565 10.6509C22.0329 10.6509 22.6628 10.021 22.6628 9.24465C22.6628 8.46828 22.0329 7.8384 21.2565 7.8384V7.83887ZM15.0011 9.48195C11.6776 9.48195 8.98301 12.1766 8.98301 15.5001C8.98301 18.8237 11.6776 21.517 15.0011 21.517C18.3246 21.517 21.0183 18.8237 21.0183 15.5001C21.0183 12.1767 18.3244 9.48195 15.0008 9.48195H15.0011ZM15.0011 11.5938C17.1584 11.5938 18.9074 13.3426 18.9074 15.5001C18.9074 17.6574 17.1584 19.4064 15.0011 19.4064C12.8438 19.4064 11.0948 17.6574 11.0948 15.5001C11.0948 13.3426 12.8436 11.5938 15.0011 11.5938Z" fill="white"/>
</g>
<defs>
<radialGradient id="paint0_radial_138_1715" cx="0" cy="0" r="1" gradientUnits="userSpaceOnUse" gradientTransform="translate(7.96875 32.8106) rotate(-90) scale(29.7322 27.6533)">
<stop stop-color="#FFDD55"/>
<stop offset="0.1" stop-color="#FFDD55"/>
<stop offset="0.5" stop-color="#FF543E"/>
<stop offset="1" stop-color="#C837AB"/>
</radialGradient>
<radialGradient id="paint1_radial_138_1715" cx="0" cy="0" r="1" gradientUnits="userSpaceOnUse" gradientTransform="translate(-5.02512 2.66105) rotate(78.681) scale(13.2905 54.7837)">
<stop stop-color="#3771C8"/>
<stop offset="0.128" stop-color="#3771C8"/>
<stop offset="1" stop-color="#6600FF" stop-opacity="0"/>
</radialGradient>
<clipPath id="clip0_138_1715">
<rect width="30" height="30" fill="white" transform="translate(0 0.5)"/>
</clipPath>
</defs>
</svg>
