<svg width="31" height="37" viewBox="0 0 31 37" fill="none" xmlns="http://www.w3.org/2000/svg">
<path d="M16.5501 35.0375C16.2441 35.2573 15.8768 35.3755 15.5001 35.3755C15.1233 35.3755 14.7561 35.2573 14.4501 35.0375C5.3957 28.5837 -4.21367 15.3088 5.5007 5.71625C8.16759 3.09284 11.7591 1.62336 15.5001 1.625C19.2501 1.625 22.8482 3.09688 25.4995 5.71438C35.2138 15.3069 25.6045 28.58 16.5501 35.0375Z" stroke="#E0AE8E" stroke-width="2.5" stroke-linecap="round" stroke-linejoin="round"/>
<path d="M15.5 18.5C16.4946 18.5 17.4484 18.1049 18.1516 17.4016C18.8549 16.6984 19.25 15.7446 19.25 14.75C19.25 13.7554 18.8549 12.8016 18.1516 12.0984C17.4484 11.3951 16.4946 11 15.5 11C14.5054 11 13.5516 11.3951 12.8484 12.0984C12.1451 12.8016 11.75 13.7554 11.75 14.75C11.75 15.7446 12.1451 16.6984 12.8484 17.4016C13.5516 18.1049 14.5054 18.5 15.5 18.5Z" stroke="#E0AE8E" stroke-width="2.5" stroke-linecap="round" stroke-linejoin="round"/>
</svg>
