<svg width="37" height="29" viewBox="0 0 37 29" fill="none" xmlns="http://www.w3.org/2000/svg">
<mask id="path-1-inside-1_31_31" fill="white">
<path d="M6.375 0.375H30.75C32.2418 0.375 33.6726 0.967632 34.7275 2.02252C35.7824 3.07742 36.375 4.50816 36.375 6V22.875C36.375 24.3668 35.7824 25.7976 34.7275 26.8525C33.6726 27.9074 32.2418 28.5 30.75 28.5H6.375C4.88316 28.5 3.45242 27.9074 2.39752 26.8525C1.34263 25.7976 0.75 24.3668 0.75 22.875V6C0.75 4.50816 1.34263 3.07742 2.39752 2.02252C3.45242 0.967632 4.88316 0.375 6.375 0.375ZM6.375 2.25C5.4375 2.25 4.6125 2.56875 3.975 3.13125L18.5625 12.5625L33.15 3.13125C32.5125 2.56875 31.6875 2.25 30.75 2.25H6.375ZM18.5625 14.8313L2.86875 4.65C2.71875 5.0625 2.625 5.53125 2.625 6V22.875C2.625 23.8696 3.02009 24.8234 3.72335 25.5266C4.42661 26.2299 5.38044 26.625 6.375 26.625H30.75C31.7446 26.625 32.6984 26.2299 33.4016 25.5266C34.1049 24.8234 34.5 23.8696 34.5 22.875V6C34.5 5.53125 34.4062 5.0625 34.2563 4.65L18.5625 14.8313Z"/>
</mask>
<path d="M6.375 0.375H30.75C32.2418 0.375 33.6726 0.967632 34.7275 2.02252C35.7824 3.07742 36.375 4.50816 36.375 6V22.875C36.375 24.3668 35.7824 25.7976 34.7275 26.8525C33.6726 27.9074 32.2418 28.5 30.75 28.5H6.375C4.88316 28.5 3.45242 27.9074 2.39752 26.8525C1.34263 25.7976 0.75 24.3668 0.75 22.875V6C0.75 4.50816 1.34263 3.07742 2.39752 2.02252C3.45242 0.967632 4.88316 0.375 6.375 0.375ZM6.375 2.25C5.4375 2.25 4.6125 2.56875 3.975 3.13125L18.5625 12.5625L33.15 3.13125C32.5125 2.56875 31.6875 2.25 30.75 2.25H6.375ZM18.5625 14.8313L2.86875 4.65C2.71875 5.0625 2.625 5.53125 2.625 6V22.875C2.625 23.8696 3.02009 24.8234 3.72335 25.5266C4.42661 26.2299 5.38044 26.625 6.375 26.625H30.75C31.7446 26.625 32.6984 26.2299 33.4016 25.5266C34.1049 24.8234 34.5 23.8696 34.5 22.875V6C34.5 5.53125 34.4062 5.0625 34.2563 4.65L18.5625 14.8313Z" fill="#E0AE8E"/>
<path d="M6.375 0.375V-2.125V0.375ZM36.375 6H38.875H36.375ZM36.375 22.875H38.875H36.375ZM30.75 28.5V31V28.5ZM6.375 28.5V31V28.5ZM0.75 22.875H-1.75H0.75ZM0.75 6H-1.75H0.75ZM3.975 3.13125L2.32095 1.25665L-0.152884 3.43945L2.61766 5.23068L3.975 3.13125ZM18.5625 12.5625L17.2052 14.6619L18.5625 15.5395L19.9198 14.6619L18.5625 12.5625ZM33.15 3.13125L34.5073 5.23068L37.2779 3.43945L34.8041 1.25665L33.15 3.13125ZM18.5625 14.8313L17.2019 16.9286L18.5625 17.8113L19.9231 16.9286L18.5625 14.8313ZM2.86875 4.65L4.22937 2.55269L1.59315 0.842455L0.519267 3.79564L2.86875 4.65ZM2.625 22.875H0.125H2.625ZM34.2563 4.65L36.6057 3.79564L35.5318 0.842456L32.8956 2.55269L34.2563 4.65ZM6.375 2.875H30.75V-2.125H6.375V2.875ZM30.75 2.875C31.5788 2.875 32.3737 3.20424 32.9597 3.79029L36.4952 0.254758C34.9715 -1.26898 32.9049 -2.125 30.75 -2.125V2.875ZM32.9597 3.79029C33.5458 4.37634 33.875 5.1712 33.875 6H38.875C38.875 3.84512 38.019 1.77849 36.4952 0.254758L32.9597 3.79029ZM33.875 6V22.875H38.875V6H33.875ZM33.875 22.875C33.875 23.7038 33.5458 24.4987 32.9597 25.0847L36.4952 28.6202C38.019 27.0965 38.875 25.0299 38.875 22.875H33.875ZM32.9597 25.0847C32.3737 25.6708 31.5788 26 30.75 26V31C32.9049 31 34.9715 30.144 36.4952 28.6202L32.9597 25.0847ZM30.75 26H6.375V31H30.75V26ZM6.375 26C5.5462 26 4.75134 25.6708 4.16529 25.0847L0.629758 28.6202C2.15349 30.144 4.22012 31 6.375 31V26ZM4.16529 25.0847C3.57924 24.4987 3.25 23.7038 3.25 22.875H-1.75C-1.75 25.0299 -0.893976 27.0965 0.629758 28.6202L4.16529 25.0847ZM3.25 22.875V6H-1.75V22.875H3.25ZM3.25 6C3.25 5.1712 3.57924 4.37634 4.16529 3.79029L0.629758 0.254758C-0.893975 1.77849 -1.75 3.84512 -1.75 6H3.25ZM4.16529 3.79029C4.75134 3.20424 5.5462 2.875 6.375 2.875V-2.125C4.22012 -2.125 2.15349 -1.26898 0.629758 0.254758L4.16529 3.79029ZM6.375 -0.25C4.84728 -0.25 3.42918 0.278802 2.32095 1.25665L5.62905 5.00584C5.79582 4.8587 6.02772 4.75 6.375 4.75V-0.25ZM2.61766 5.23068L17.2052 14.6619L19.9198 10.4631L5.33235 1.03182L2.61766 5.23068ZM19.9198 14.6619L34.5073 5.23068L31.7927 1.03182L17.2052 10.4631L19.9198 14.6619ZM34.8041 1.25665C33.6958 0.278801 32.2777 -0.25 30.75 -0.25V4.75C31.0973 4.75 31.3292 4.8587 31.4959 5.00584L34.8041 1.25665ZM30.75 -0.25H6.375V4.75H30.75V-0.25ZM19.9231 12.7339L4.22937 2.55269L1.50813 6.74731L17.2019 16.9286L19.9231 12.7339ZM0.519267 3.79564C0.28048 4.45231 0.125 5.20988 0.125 6H5.125C5.125 5.85262 5.15702 5.6727 5.21823 5.50436L0.519267 3.79564ZM0.125 6V22.875H5.125V6H0.125ZM0.125 22.875C0.125 24.5326 0.78348 26.1223 1.95558 27.2944L5.49112 23.7589C5.2567 23.5245 5.125 23.2065 5.125 22.875H0.125ZM1.95558 27.2944C3.12768 28.4665 4.7174 29.125 6.375 29.125V24.125C6.04348 24.125 5.72554 23.9933 5.49112 23.7589L1.95558 27.2944ZM6.375 29.125H30.75V24.125H6.375V29.125ZM30.75 29.125C32.4076 29.125 33.9973 28.4665 35.1694 27.2944L31.6339 23.7589C31.3995 23.9933 31.0815 24.125 30.75 24.125V29.125ZM35.1694 27.2944C36.3415 26.1223 37 24.5326 37 22.875H32C32 23.2065 31.8683 23.5245 31.6339 23.7589L35.1694 27.2944ZM37 22.875V6H32V22.875H37ZM37 6C37 5.20989 36.8445 4.45231 36.6057 3.79564L31.9068 5.50436C31.968 5.67269 32 5.85261 32 6H37ZM32.8956 2.55269L17.2019 12.7339L19.9231 16.9286L35.6169 6.74731L32.8956 2.55269Z" fill="#E0AE8E" mask="url(#path-1-inside-1_31_31)"/>
</svg>
