<svg width="25" height="27" viewBox="0 0 25 27" fill="none" xmlns="http://www.w3.org/2000/svg">
<path d="M9.375 2.83968C9.09873 2.83968 8.83378 2.94943 8.63843 3.14478C8.44308 3.34013 8.33333 3.60508 8.33333 3.88135V8.56885C8.33333 8.84511 8.22359 9.11007 8.02824 9.30542C7.83289 9.50077 7.56793 9.61051 7.29167 9.61051H3.125C2.84873 9.61051 2.58378 9.72026 2.38843 9.91561C2.19308 10.111 2.08333 10.3759 2.08333 10.6522V16.8709C2.08333 17.1472 2.19308 17.4121 2.38843 17.6075C2.58378 17.8029 2.84873 17.9126 3.125 17.9126H7.29167C7.56793 17.9126 7.83289 18.0223 8.02824 18.2177C8.22359 18.413 8.33333 18.678 8.33333 18.9543V23.1209C8.33333 23.3972 8.44308 23.6621 8.63843 23.8575C8.83378 24.0529 9.09873 24.1626 9.375 24.1626H15.625C15.9013 24.1626 16.1662 24.0529 16.3616 23.8575C16.5569 23.6621 16.6667 23.3972 16.6667 23.1209V18.9543C16.6667 18.678 16.7764 18.413 16.9718 18.2177C17.1671 18.0223 17.4321 17.9126 17.7083 17.9126H21.875C22.1513 17.9126 22.4162 17.8029 22.6116 17.6075C22.8069 17.4121 22.9167 17.1472 22.9167 16.8709V10.6209C22.9167 10.3447 22.8069 10.0797 22.6116 9.88436C22.4162 9.68901 22.1513 9.57926 21.875 9.57926H17.7083C17.4321 9.57926 17.1671 9.46952 16.9718 9.27417C16.7764 9.07882 16.6667 8.81386 16.6667 8.5376V3.88135C16.6667 3.60508 16.5569 3.34013 16.3616 3.14478C16.1662 2.94943 15.9013 2.83968 15.625 2.83968H9.375ZM6.25 3.88135C6.25 3.05255 6.57924 2.25769 7.16529 1.67164C7.75134 1.08559 8.5462 0.756348 9.375 0.756348H15.625C16.4538 0.756348 17.2487 1.08559 17.8347 1.67164C18.4208 2.25769 18.75 3.05255 18.75 3.88135V7.49385H21.875C22.7038 7.49385 23.4987 7.82309 24.0847 8.40914C24.6708 8.99519 25 9.79005 25 10.6188V16.8688C25 17.6976 24.6708 18.4925 24.0847 19.0786C23.4987 19.6646 22.7038 19.9938 21.875 19.9938H18.75V23.1188C18.75 23.9476 18.4208 24.7425 17.8347 25.3286C17.2487 25.9146 16.4538 26.2438 15.625 26.2438H9.375C8.5462 26.2438 7.75134 25.9146 7.16529 25.3286C6.57924 24.7425 6.25 23.9476 6.25 23.1188V19.9938H3.125C2.2962 19.9938 1.50134 19.6646 0.915291 19.0786C0.32924 18.4925 0 17.6976 0 16.8688V10.6543C0 9.82546 0.32924 9.03061 0.915291 8.44456C1.50134 7.8585 2.2962 7.52926 3.125 7.52926H6.25V3.88135Z" fill="#1E201E" fill-opacity="0.6"/>
</svg>
