<svg width="35" height="36" viewBox="0 0 35 36" fill="none" xmlns="http://www.w3.org/2000/svg">
<path d="M24.7917 20.5666C25.1784 20.5666 25.5494 20.4129 25.8229 20.1394C26.0964 19.8659 26.25 19.495 26.25 19.1082C26.25 18.7215 26.0964 18.3505 25.8229 18.077C25.5494 17.8035 25.1784 17.6499 24.7917 17.6499C24.4049 17.6499 24.034 17.8035 23.7605 18.077C23.487 18.3505 23.3333 18.7215 23.3333 19.1082C23.3333 19.495 23.487 19.8659 23.7605 20.1394C24.034 20.4129 24.4049 20.5666 24.7917 20.5666ZM24.7917 26.3999C25.1784 26.3999 25.5494 26.2463 25.8229 25.9728C26.0964 25.6993 26.25 25.3283 26.25 24.9416C26.25 24.5548 26.0964 24.1839 25.8229 23.9104C25.5494 23.6369 25.1784 23.4832 24.7917 23.4832C24.4049 23.4832 24.034 23.6369 23.7605 23.9104C23.487 24.1839 23.3333 24.5548 23.3333 24.9416C23.3333 25.3283 23.487 25.6993 23.7605 25.9728C24.034 26.2463 24.4049 26.3999 24.7917 26.3999ZM18.9583 19.1082C18.9583 19.495 18.8047 19.8659 18.5312 20.1394C18.2577 20.4129 17.8868 20.5666 17.5 20.5666C17.1132 20.5666 16.7423 20.4129 16.4688 20.1394C16.1953 19.8659 16.0417 19.495 16.0417 19.1082C16.0417 18.7215 16.1953 18.3505 16.4688 18.077C16.7423 17.8035 17.1132 17.6499 17.5 17.6499C17.8868 17.6499 18.2577 17.8035 18.5312 18.077C18.8047 18.3505 18.9583 18.7215 18.9583 19.1082ZM18.9583 24.9416C18.9583 25.3283 18.8047 25.6993 18.5312 25.9728C18.2577 26.2463 17.8868 26.3999 17.5 26.3999C17.1132 26.3999 16.7423 26.2463 16.4688 25.9728C16.1953 25.6993 16.0417 25.3283 16.0417 24.9416C16.0417 24.5548 16.1953 24.1839 16.4688 23.9104C16.7423 23.6369 17.1132 23.4832 17.5 23.4832C17.8868 23.4832 18.2577 23.6369 18.5312 23.9104C18.8047 24.1839 18.9583 24.5548 18.9583 24.9416ZM10.2083 20.5666C10.5951 20.5666 10.966 20.4129 11.2395 20.1394C11.513 19.8659 11.6667 19.495 11.6667 19.1082C11.6667 18.7215 11.513 18.3505 11.2395 18.077C10.966 17.8035 10.5951 17.6499 10.2083 17.6499C9.82156 17.6499 9.45063 17.8035 9.17714 18.077C8.90365 18.3505 8.75 18.7215 8.75 19.1082C8.75 19.495 8.90365 19.8659 9.17714 20.1394C9.45063 20.4129 9.82156 20.5666 10.2083 20.5666ZM10.2083 26.3999C10.5951 26.3999 10.966 26.2463 11.2395 25.9728C11.513 25.6993 11.6667 25.3283 11.6667 24.9416C11.6667 24.5548 11.513 24.1839 11.2395 23.9104C10.966 23.6369 10.5951 23.4832 10.2083 23.4832C9.82156 23.4832 9.45063 23.6369 9.17714 23.9104C8.90365 24.1839 8.75 24.5548 8.75 24.9416C8.75 25.3283 8.90365 25.6993 9.17714 25.9728C9.45063 26.2463 9.82156 26.3999 10.2083 26.3999Z" fill="#E0AE8E"/>
<path fill-rule="evenodd" clip-rule="evenodd" d="M10.134 2.59985C10.424 2.59985 10.7022 2.71509 10.9074 2.92021C11.1125 3.12532 11.2277 3.40352 11.2277 3.6936V4.80631C12.1931 4.78735 13.2563 4.78735 14.4258 4.78735H20.424C21.595 4.78735 22.6581 4.78735 23.6235 4.80631V3.6936C23.6235 3.40352 23.7388 3.12532 23.9439 2.92021C24.149 2.71509 24.4272 2.59985 24.7173 2.59985C25.0074 2.59985 25.2856 2.71509 25.4907 2.92021C25.6958 3.12532 25.811 3.40352 25.811 3.6936V4.89965C26.1902 4.92881 26.5494 4.96576 26.8888 5.01048C28.5979 5.2409 29.9819 5.72506 31.0742 6.8159C32.165 7.90819 32.6492 9.29215 32.8796 11.0013C33.1027 12.6638 33.1027 14.7857 33.1027 17.4661V20.5461C33.1027 23.2265 33.1027 25.3499 32.8796 27.0109C32.6492 28.7201 32.165 30.104 31.0742 31.1963C29.9819 32.2871 28.5979 32.7713 26.8888 33.0017C25.2263 33.2249 23.1044 33.2249 20.424 33.2249H14.4288C11.7483 33.2249 9.625 33.2249 7.96396 33.0017C6.25479 32.7713 4.87083 32.2871 3.77854 31.1963C2.68771 30.104 2.20354 28.7201 1.97313 27.0109C1.75 25.3484 1.75 23.2265 1.75 20.5461V17.4661C1.75 14.7857 1.75 12.6624 1.97313 11.0013C2.20354 9.29215 2.68771 7.90819 3.77854 6.8159C4.87083 5.72506 6.25479 5.2409 7.96396 5.01048C8.30424 4.96576 8.66347 4.92881 9.04167 4.89965V3.6936C9.04167 3.40378 9.1567 3.1258 9.3615 2.92072C9.56631 2.71564 9.84413 2.60024 10.134 2.59985ZM8.25271 7.17902C6.78708 7.3759 5.94125 7.74631 5.32437 8.36319C4.7075 8.98006 4.33708 9.8259 4.14021 11.2915C4.10715 11.5394 4.07896 11.8015 4.05563 12.0776H30.7956C30.7723 11.8015 30.7441 11.539 30.711 11.2901C30.5142 9.82444 30.1438 8.9786 29.5269 8.36173C28.91 7.74485 28.0642 7.37444 26.5971 7.17756C25.0994 6.97631 23.1233 6.9734 20.3423 6.9734H14.509C11.7279 6.9734 9.75333 6.97777 8.25271 7.17902ZM3.93604 17.5478C3.93604 16.3024 3.93604 15.2188 3.955 14.2665H30.8963C30.9152 15.2188 30.9152 16.3024 30.9152 17.5478V20.4644C30.9152 23.2455 30.9123 25.2215 30.711 26.7207C30.5142 28.1863 30.1438 29.0321 29.5269 29.649C28.91 30.2659 28.0642 30.6363 26.5971 30.8332C25.0994 31.0344 23.1233 31.0374 20.3423 31.0374H14.509C11.7279 31.0374 9.75333 31.0344 8.25271 30.8332C6.78708 30.6363 5.94125 30.2659 5.32437 29.649C4.7075 29.0321 4.33708 28.1863 4.14021 26.7192C3.93896 25.2215 3.93604 23.2455 3.93604 20.4644V17.5478Z" fill="#E0AE8E"/>
</svg>
